# xmcd
#
# Track frame offsets:
# 150
# 15546
# 35495
# 48822
# 65611
# 87366
# 100812
# 122342
# 138598
# 154697
#
# Disc length: 2284 seconds
#
#
# Revision: 0
# Processed by: cddbd v1.5.1PL2 Copyright (c) Steve Scherf et al.
# Submitted via: FreeRIP 2.944 
#
DISCID=7808ea0a
DTITLE=Sammy Kershaw - Coverin' The Hits
DYEAR=2000
DGENRE=Country
TTITLE0=Thirs Rate Romance
TTITLE1=More Than I Can Say
TTITLE2=If I Fell
TTITLE3=Chevy Van
TTITLE4=Fire and Rain
TTITLE5=Memphis
TTITLE6=Angie
TTITLE7=I Got a Name
TTITLE8=I Know a Little
TTITLE9=Little Bit More
EXTD=
EXTT0=
EXTT1=
EXTT2=
EXTT3=
EXTT4=
EXTT5=
EXTT6=
EXTT7=
EXTT8=
EXTT9=
PLAYORDER=
